<?xml version="1.0" standalone="no"?><!DOCTYPE svg PUBLIC "-//W3C//DTD SVG 1.1//EN" "http://www.w3.org/Graphics/SVG/1.1/DTD/svg11.dtd"><svg t="1548128516416" class="icon" style="" viewBox="0 0 1025 1024" version="1.1" xmlns="http://www.w3.org/2000/svg" p-id="1363" xmlns:xlink="http://www.w3.org/1999/xlink" width="200.1953125" height="200"><defs><style type="text/css"></style></defs><path d="M913.72771555 86.65543111H112.70371555c-61.44 0-111.36 51.90542222-111.36 115.712v621.76142222c0 63.87143111 49.98371555 115.77457778 111.36 115.77457778h801.08771556c61.56856889 0 111.55228445-51.90314667 111.55228444-115.77571556V202.36743111c0-63.80657778-50.04743111-115.712-111.616-115.712z m52.92828445 737.47342222a54.016 54.016 0 0 1-52.92828445 54.91143112H112.70371555c-29.05543111 0-52.79971555-24.63971555-52.79971555-54.84771556V202.36856889c0-30.33656889 23.67943111-54.784 52.79971555-54.784h801.08771556c29.184 0 52.92942222 24.51114667 52.92942222 54.784V824.12657778z m-94.08056889-512.96028444H544.19228445a29.696 29.696 0 0 0-29.3125689 30.208c0 16.896 12.99228445 30.464 29.3125689 30.464h328.38428444a29.75971555 29.75971555 0 0 0 29.184-30.464 30.01571555 30.01571555 0 0 0-8.32056889-21.18542222 29.88828445 29.88828445 0 0 0-20.86343111-9.02257778z m0 155.19971556H544.19228445A29.63228445 29.63228445 0 0 0 514.87857778 496.64a29.63228445 29.63228445 0 0 0 29.31256889 30.40028445h328.38428444a29.952 29.952 0 0 0 29.184-30.40028445 29.75971555 29.75971555 0 0 0-29.184-30.27171555z m0 148.16028444H595.51971555a29.952 29.952 0 0 0-29.3114311 30.39914666 29.63228445 29.63228445 0 0 0 29.3114311 30.40028445h277.05685334c15.99943111 0 29.184-13.63171555 29.184-30.40028445s-13.056-30.39914667-29.184-30.39914666z m-452.67171556-66.62485334a160.12856889 160.12856889 0 0 0 54.9125689-121.6c0-87.16743111-68.28828445-158.07943111-152.32-158.0794311S170.11143111 339.07143111 170.11143111 426.30257778c0 48.83228445 21.504 92.60828445 55.04 121.6-59.32714667 28.09628445-106.17514667 81.72771555-126.72 150.33571555a30.84856889 30.84856889 0 0 0 19.26485334 38.144 29.44 29.44 0 0 0 36.79914666-19.968C177.53543111 638.84856889 245.18428445 586.752 322.56 586.752s145.02343111 52.03171555 168.192 129.59971555a29.56856889 29.56856889 0 0 0 27.96771555 21.3765689 30.84856889 30.84856889 0 0 0 8.704-1.34371556 30.59143111 30.59143111 0 0 0 19.3285689-38.144c-20.60856889-68.608-67.45656889-122.24056889-126.8485689-150.33685334zM322.56 523.58371555c-51.712 0-93.63228445-43.64743111-93.63228445-97.34371555 0-53.63256889 41.984-97.28 93.63228445-97.28 51.712 0 93.75971555 43.64743111 93.75971555 97.28s-42.11143111 97.34371555-93.75971555 97.34371555z m0 0" p-id="1364"></path></svg>