<?xml version="1.0" standalone="no"?><!DOCTYPE svg PUBLIC "-//W3C//DTD SVG 1.1//EN" "http://www.w3.org/Graphics/SVG/1.1/DTD/svg11.dtd"><svg t="1546488897571" class="icon" style="" viewBox="0 0 1024 1024" version="1.1" xmlns="http://www.w3.org/2000/svg" p-id="1621" xmlns:xlink="http://www.w3.org/1999/xlink" width="128" height="128"><defs><style type="text/css"></style></defs><path d="M920.42 418.786h-76.23c-7.655-26.792-18.34-52.309-31.736-76.07l54.86-54.86c24.719-24.72 24.719-64.589 0-89.307l-44.653-44.654c-24.72-24.719-64.588-24.719-89.307 0l-55.817 55.817c-22.327-12.28-46.248-21.848-71.286-28.865v-76.23c0-34.766-28.068-62.834-62.834-62.834h-62.834c-34.766 0-62.834 28.068-62.834 62.834v76.07a351.043 351.043 0 0 0-73.678 30.3l-57.412-57.41c-24.718-24.72-64.588-24.72-89.307 0L152.7 198.23c-24.719 24.718-24.719 64.588 0 89.307l57.412 57.411c-12.918 23.124-22.965 47.684-30.301 73.678h-76.23c-34.766 0-62.834 28.068-62.834 62.834v62.834c0 34.766 28.068 62.834 62.834 62.834h76.23c7.017 24.878 16.586 48.96 28.865 71.286l-55.817 55.817c-24.718 24.719-24.718 64.588 0 89.307l44.654 44.653c24.719 24.72 64.588 24.72 89.307 0l54.86-54.86c23.762 13.556 49.278 24.24 76.07 31.736v76.23c0 34.766 28.068 62.834 62.834 62.834h62.834c34.766 0 62.834-28.068 62.834-62.834v-76.07a351.043 351.043 0 0 0 73.678-30.301l53.425 53.425c24.719 24.719 64.588 24.719 89.307 0l44.653-44.654c24.719-24.719 24.719-64.588 0-89.307l-53.425-53.424c12.918-23.125 22.965-47.684 30.301-73.679h76.23c34.766 0 62.834-28.227 62.834-62.833V481.62c0-34.607-28.228-62.834-62.834-62.834M512 701.538c-104.138 0-188.501-84.363-188.501-188.501 0-104.139 84.363-188.502 188.501-188.502s188.501 84.363 188.501 188.502c0 104.138-84.363 188.501-188.501 188.501m0-282.752c-51.99 0-94.25 42.261-94.25 94.25 0 51.99 42.26 94.251 94.25 94.251s94.25-42.261 94.25-94.25c0-51.99-42.26-94.251-94.25-94.251" p-id="1622"></path></svg>
